<svg width="24" height="24" viewBox="0 0 24 24" fill="none" xmlns="http://www.w3.org/2000/svg">
<g clip-path="url(#clip0_2520_1406)">
<path opacity="0.999" fill-rule="evenodd" clip-rule="evenodd" d="M2.36719 0.725587C4.64849 0.717773 6.92972 0.725587 9.21094 0.749024C10.0406 0.969294 10.5797 1.49273 10.8281 2.31934C10.8516 5.16306 10.8594 8.00677 10.8516 10.8506C8.02341 10.8584 5.19525 10.8506 2.36719 10.8272C1.53627 10.6056 0.997211 10.0822 0.750001 9.25684C0.71875 6.94435 0.71875 4.63184 0.750001 2.31934C1.00568 1.49329 1.54474 0.962043 2.36719 0.725587Z" fill="white"/>
<path opacity="0.999" fill-rule="evenodd" clip-rule="evenodd" d="M14.7422 0.725587C17.0235 0.717773 19.3047 0.725587 21.5859 0.749024C22.4156 0.969294 22.9547 1.49273 23.2031 2.31934C23.2344 4.63184 23.2344 6.94435 23.2031 9.25684C22.9547 10.0834 22.4156 10.6069 21.5859 10.8272C18.7579 10.8506 15.9297 10.8584 13.1016 10.8506C13.0937 8.00677 13.1016 5.16306 13.125 2.31934C13.3807 1.49329 13.9198 0.962043 14.7422 0.725587Z" fill="white"/>
<path opacity="0.999" fill-rule="evenodd" clip-rule="evenodd" d="M2.36719 13.1016C5.1953 13.1016 8.02345 13.1016 10.8516 13.1016C10.8594 15.9454 10.8516 18.7891 10.8281 21.6328C10.608 22.3842 10.1314 22.892 9.39844 23.1562C8.19755 23.2101 6.99441 23.2335 5.78906 23.2266C4.58372 23.2335 3.38059 23.2101 2.17969 23.1562C1.44549 22.8908 0.968931 22.383 0.750001 21.6328C0.71875 19.3203 0.71875 17.0078 0.750001 14.6953C1.00568 13.8693 1.54474 13.338 2.36719 13.1016Z" fill="white"/>
<path opacity="0.999" fill-rule="evenodd" clip-rule="evenodd" d="M13.1016 13.1006C15.9297 13.0928 18.7579 13.1006 21.5859 13.124C22.4156 13.3443 22.9547 13.8677 23.2031 14.6943C23.2344 17.0068 23.2344 19.3194 23.2031 21.6318C22.9547 22.4584 22.4156 22.9819 21.5859 23.2022C19.3047 23.2334 17.0235 23.2334 14.7422 23.2022C13.9113 22.9806 13.3722 22.4572 13.125 21.6318C13.1016 18.7881 13.0937 15.9444 13.1016 13.1006Z" fill="white"/>
</g>
<defs>
<clipPath id="clip0_2520_1406">
<rect width="24" height="24" fill="white"/>
</clipPath>
</defs>
</svg>
