<svg width="24" height="24" viewBox="0 0 24 24" fill="none" xmlns="http://www.w3.org/2000/svg">
<g clip-path="url(#clip0_2520_9132)">
<path opacity="0.99" fill-rule="evenodd" clip-rule="evenodd" d="M2.74219 0.725587C4.77352 0.717773 6.80475 0.725587 8.83594 0.749024C9.90624 1.00684 10.5703 1.6709 10.8281 2.74121C10.8594 5.28807 10.8594 7.83498 10.8281 10.3818C10.7422 10.5928 10.5938 10.7412 10.3828 10.8271C7.83596 10.8584 5.28905 10.8584 2.74219 10.8271C1.67188 10.5693 1.00781 9.90526 0.750001 8.83496C0.71875 6.80373 0.71875 4.77245 0.750001 2.74121C1.01632 1.67023 1.68038 0.998357 2.74219 0.725587ZM3.21094 2.22559C4.92975 2.21777 6.64852 2.22559 8.36719 2.24902C8.95941 2.3256 9.27971 2.66154 9.32813 3.25684C9.35156 5.28802 9.35939 7.31926 9.35156 9.35059C7.30463 9.35841 5.25774 9.35059 3.21094 9.32715C2.61874 9.25056 2.29843 8.91465 2.25 8.31934C2.21875 6.63184 2.21875 4.94434 2.25 3.25684C2.30695 2.661 2.62727 2.31725 3.21094 2.22559Z" fill="#B6DFD8"/>
<path opacity="0.99" fill-rule="evenodd" clip-rule="evenodd" d="M15.1172 0.725587C17.1485 0.717773 19.1798 0.725587 21.2109 0.749024C22.2812 1.00684 22.9453 1.6709 23.2031 2.74121C23.2344 4.77245 23.2344 6.80373 23.2031 8.83496C22.9453 9.90526 22.2812 10.5693 21.2109 10.8271C18.6641 10.8584 16.1172 10.8584 13.5703 10.8271C13.3594 10.7412 13.2109 10.5928 13.125 10.3818C13.0937 7.83498 13.0937 5.28807 13.125 2.74121C13.3913 1.67023 14.0554 0.998357 15.1172 0.725587ZM15.5859 2.22559C17.3048 2.21777 19.0235 2.22559 20.7422 2.24902C21.3344 2.3256 21.6547 2.66154 21.7031 3.25684C21.7344 4.94434 21.7344 6.63184 21.7031 8.31934C21.6547 8.91465 21.3344 9.25056 20.7422 9.32715C18.6954 9.35059 16.6485 9.35841 14.6016 9.35059C14.5937 7.31926 14.6016 5.28802 14.625 3.25684C14.682 2.661 15.0023 2.31725 15.5859 2.22559Z" fill="#B6DFD8"/>
<path opacity="0.99" fill-rule="evenodd" clip-rule="evenodd" d="M2.74219 13.1006C5.2891 13.0928 7.836 13.1006 10.3828 13.124C10.5938 13.21 10.7422 13.3584 10.8281 13.5693C10.8594 16.1162 10.8594 18.6631 10.8281 21.21C10.5703 22.2803 9.90624 22.9443 8.83594 23.2022C6.80471 23.2334 4.77342 23.2334 2.74219 23.2022C1.67188 22.9443 1.00781 22.2803 0.750001 21.21C0.71875 19.1787 0.71875 17.1475 0.750001 15.1162C1.01632 14.0452 1.68038 13.3734 2.74219 13.1006ZM3.21094 14.6006C5.25783 14.6006 7.30467 14.6006 9.35156 14.6006C9.37331 16.7426 9.34988 18.8832 9.28125 21.0225C9.16406 21.3272 8.95313 21.5381 8.64844 21.6553C7.69697 21.7082 6.74386 21.7317 5.78906 21.7256C4.83427 21.7317 3.88116 21.7082 2.92969 21.6553C2.625 21.5381 2.41406 21.3272 2.29688 21.0225C2.22079 19.227 2.20517 17.4301 2.25 15.6318C2.30695 15.036 2.62727 14.6922 3.21094 14.6006Z" fill="#B6DFD8"/>
<path opacity="0.99" fill-rule="evenodd" clip-rule="evenodd" d="M13.5703 13.1006C16.1172 13.0928 18.6641 13.1006 21.2109 13.124C22.2812 13.3818 22.9453 14.0459 23.2031 15.1162C23.2344 17.1475 23.2344 19.1787 23.2031 21.21C22.9453 22.2803 22.2812 22.9443 21.2109 23.2022C19.1797 23.2334 17.1484 23.2334 15.1172 23.2022C14.0469 22.9443 13.3828 22.2803 13.125 21.21C13.0937 18.6631 13.0937 16.1162 13.125 13.5693C13.2198 13.3575 13.3682 13.2012 13.5703 13.1006ZM14.6016 14.6006C16.6485 14.5928 18.6954 14.6006 20.7422 14.624C21.3344 14.7006 21.6547 15.0365 21.7031 15.6318C21.7344 17.3193 21.7344 19.0068 21.7031 20.6943C21.6547 21.2897 21.3344 21.6256 20.7422 21.7022C19.0234 21.7334 17.3047 21.7334 15.5859 21.7022C14.9937 21.6256 14.6734 21.2897 14.625 20.6943C14.6016 18.6632 14.5937 16.6319 14.6016 14.6006Z" fill="#B6DFD8"/>
</g>
<defs>
<clipPath id="clip0_2520_9132">
<rect width="24" height="24" fill="white"/>
</clipPath>
</defs>
</svg>
