<svg width="36" height="36" viewBox="0 0 36 36" fill="none" xmlns="http://www.w3.org/2000/svg">
<g id="clothes">
<circle id="Ellipse 173" cx="18" cy="18" r="18" fill="#F5F7FF"/>
<g id="Group">
<path id="Vector" d="M17.0074 26.1417H7.57306C7.34059 26.1417 7.13208 26.3298 7.10823 26.561L7.00234 27.5859C6.99019 27.7034 7.02562 27.8148 7.10221 27.8997C7.17879 27.9846 7.28601 28.0314 7.40411 28.0314H16.9301C17.1662 28.0314 17.3673 27.8396 17.3784 27.6038L17.4267 26.5814C17.4322 26.4648 17.3915 26.3546 17.3118 26.2712C17.2323 26.1877 17.1241 26.1417 17.0074 26.1417Z" fill="#001169"/>
<path id="Vector_2" d="M28.9976 27.586L28.8917 26.561C28.8678 26.3298 28.6593 26.1417 28.4268 26.1417H18.9844C18.8676 26.1417 18.7595 26.1877 18.6802 26.2714C18.6008 26.355 18.5604 26.4652 18.5665 26.5819L18.62 27.6045C18.6323 27.8399 18.834 28.0314 19.0698 28.0314H28.5958C28.7139 28.0314 28.8211 27.9846 28.8977 27.8997C28.9743 27.8148 29.0097 27.7034 28.9976 27.586Z" fill="#001169"/>
<path id="Vector_3" d="M19.3047 10.0802V9.31151C19.3047 9.27 19.2696 9.23492 19.2281 9.23492H16.7719C16.7304 9.23492 16.6953 9.27 16.6953 9.31151V10.0802C16.6953 10.1217 16.7304 10.1568 16.7719 10.1568H19.2281C19.2697 10.1568 19.3047 10.1217 19.3047 10.0802Z" fill="#001169"/>
<path id="Vector_4" d="M18.9269 25.2984H28.3133C28.4314 25.2984 28.5386 25.2517 28.6152 25.1668C28.6917 25.0819 28.7272 24.9705 28.7151 24.853L27.5609 13.6849C27.5422 13.5029 27.4695 13.2291 27.3956 13.0615L26.5938 11.2449C26.7583 11.1407 26.8682 10.9576 26.8682 10.7488V8.55578C26.8682 8.23203 26.6048 7.96863 26.281 7.96863H9.71861C9.39485 7.96863 9.13145 8.23203 9.13145 8.55578V10.7489C9.13145 10.963 9.24699 11.1501 9.41865 11.2527L8.60623 13.0616C8.53107 13.2287 8.4575 13.5025 8.43871 13.6849L7.28457 24.8529C7.27241 24.9705 7.3079 25.0819 7.38448 25.1668C7.46107 25.2516 7.56829 25.2984 7.68633 25.2984H17.0591C17.2952 25.2984 17.4963 25.1066 17.5075 24.8708L17.7657 19.4086C17.7704 19.3079 17.8597 19.2218 17.9605 19.2206L18.0001 19.2202C18.0986 19.2202 18.1863 19.3032 18.1913 19.4016L18.4771 24.8715C18.4894 25.1069 18.6912 25.2984 18.9269 25.2984ZM16.7717 10.9226C16.3072 10.9226 15.9293 10.5447 15.9293 10.0802V9.31153C15.9293 8.84701 16.3072 8.46909 16.7717 8.46909H19.2279C19.6924 8.46909 20.0704 8.84701 20.0704 9.31153V10.0802C20.0704 10.5447 19.6924 10.9226 19.2279 10.9226H16.7717Z" fill="#001169"/>
</g>
</g>
</svg>
