<svg width="32" height="32" viewBox="0 0 32 32" fill="none" xmlns="http://www.w3.org/2000/svg">
<g id="Frame 182">
<g id="Group 1000002391">
<g id="Group">
<path id="Vector" opacity="0.965" fill-rule="evenodd" clip-rule="evenodd" d="M22.7317 4.01241C25.3959 3.86346 27.116 5.05503 27.892 7.58713C28.1735 8.99337 27.9044 10.281 27.0848 11.4501C22.1567 16.4359 17.2079 21.4039 12.2382 26.3544C12.1005 26.4617 11.9468 26.5385 11.7769 26.585C9.62445 27.0463 7.47189 27.5075 5.3194 27.9688C4.3392 28.1224 3.90678 27.7092 4.02212 26.7291C4.49259 24.4536 4.99228 22.1857 5.5212 19.9257C10.5085 14.9384 15.4958 9.95105 20.4831 4.96375C21.1636 4.47142 21.9132 4.15431 22.7317 4.01241ZM22.9047 5.91508C24.5505 5.80016 25.5979 6.53048 26.047 8.10604C26.1915 9.05587 25.9417 9.88227 25.2974 10.5853C24.6632 11.2195 24.029 11.8537 23.3948 12.4879C22.1063 11.2091 20.8282 9.92142 19.5606 8.62495C20.2612 7.89542 20.9724 7.17471 21.6939 6.46282C22.0695 6.20679 22.4731 6.02421 22.9047 5.91508ZM18.1192 10.0087C19.45 11.2529 20.7569 12.531 22.0398 13.8429C18.4075 17.4752 14.7751 21.1076 11.1427 24.74C9.49495 25.1214 7.84211 25.477 6.18425 25.8066C6.51259 24.1666 6.86814 22.533 7.2509 20.9058C10.8853 17.2811 14.508 13.6487 18.1192 10.0087Z" fill="#1B9B85"/>
</g>
</g>
</g>
</svg>
