<svg width="88" height="48" viewBox="0 0 88 48" fill="none" xmlns="http://www.w3.org/2000/svg">
<rect x="1" y="1" width="86" height="46" rx="23" fill="white"/>
<path d="M42.8673 33.8127C43.4647 33.6924 43.819 33.0671 43.5323 32.5294C42.7064 30.9806 41.339 29.6196 39.5628 28.5957C37.3932 27.3449 34.7348 26.667 32 26.667C29.2652 26.667 26.6068 27.3449 24.4372 28.5957C22.661 29.6196 21.2936 30.9806 20.4677 32.5293C20.181 33.0671 20.5353 33.6924 21.1327 33.8127L24.1062 34.4113C29.3165 35.4601 34.6835 35.4601 39.8938 34.4113L42.8673 33.8127Z" fill="#1B9B85"/>
<ellipse cx="32.0002" cy="18.6667" rx="6.90184" ry="6.66667" fill="#1B9B85"/>
<path d="M60 21L66 27L72 21" stroke="#1B9B85" stroke-width="2" stroke-linecap="round" stroke-linejoin="round"/>
<rect x="1" y="1" width="86" height="46" rx="23" stroke="#1B9B85" stroke-width="2"/>
</svg>
