<svg width="24" height="24" viewBox="0 0 24 24" fill="none" xmlns="http://www.w3.org/2000/svg">
<path opacity="0.965" fill-rule="evenodd" clip-rule="evenodd" d="M18.7278 0.0124137C21.392 -0.136542 23.1121 1.05503 23.8881 3.58713C24.1696 4.99337 23.9005 6.28102 23.0809 7.45012C18.1528 12.4359 13.204 17.4039 8.23429 22.3544C8.09661 22.4617 7.9429 22.5385 7.77304 22.585C5.62054 23.0463 3.46799 23.5075 1.31549 23.9688C0.335298 24.1224 -0.0971267 23.7092 0.0182155 22.7291C0.488688 20.4536 0.988376 18.1857 1.51729 15.9257C6.50459 10.9384 11.4919 5.95105 16.4792 0.963749C17.1597 0.471418 17.9093 0.154307 18.7278 0.0124137ZM18.9008 1.91508C20.5466 1.80016 21.594 2.53048 22.0431 4.10604C22.1876 5.05587 21.9378 5.88227 21.2935 6.58527C20.6593 7.2195 20.0251 7.85372 19.3909 8.48794C18.1024 7.20912 16.8243 5.92142 15.5567 4.62495C16.2573 3.89542 16.9685 3.17471 17.69 2.46282C18.0656 2.20679 18.4692 2.02421 18.9008 1.91508ZM14.1153 6.00871C15.4461 7.25294 16.753 8.53101 18.0359 9.84288C14.4036 13.4752 10.7712 17.1076 7.13882 20.74C5.49105 21.1214 3.8382 21.477 2.18034 21.8066C2.50868 20.1666 2.86424 18.533 3.24699 16.9058C6.88138 13.2811 10.5041 9.64869 14.1153 6.00871Z" fill="#B6DFD8"/>
</svg>
