<svg width="22" height="22" viewBox="0 0 22 22" fill="none" xmlns="http://www.w3.org/2000/svg">
<g id="Group 1000002386">
<g id="Group">
<path id="Vector" opacity="0.99" fill-rule="evenodd" clip-rule="evenodd" d="M9.88281 0C10.6276 0 11.3724 0 12.1172 0C13.3036 0.393571 13.8479 1.2243 13.75 2.49219C14.2006 2.62575 14.6375 2.79762 15.0605 3.00781C15.3146 2.75371 15.5939 2.5317 15.8984 2.3418C16.6607 1.99852 17.3912 2.05581 18.0898 2.51367C18.5553 2.97917 19.0208 3.44466 19.4863 3.91016C20.0081 4.70375 20.0224 5.50584 19.5293 6.31641C19.3497 6.52459 19.1706 6.73226 18.9922 6.93945C19.1935 7.34989 19.3653 7.77245 19.5078 8.20703C20.7706 8.14928 21.6014 8.70788 22 9.88281C22 10.6276 22 11.3724 22 12.1172C21.6014 13.2921 20.7706 13.8507 19.5078 13.793C19.3653 14.2276 19.1935 14.6501 18.9922 15.0605C19.1706 15.2677 19.3497 15.4754 19.5293 15.6836C20.0224 16.4942 20.0081 17.2963 19.4863 18.0898C19.0208 18.5553 18.5553 19.0208 18.0898 19.4863C17.2966 20.011 16.4945 20.0253 15.6836 19.5293C15.4754 19.3497 15.2677 19.1706 15.0605 18.9922C14.6375 19.2024 14.2006 19.3743 13.75 19.5078C13.8485 20.7741 13.3043 21.6048 12.1172 22C11.3724 22 10.6276 22 9.88281 22C9.07053 21.7821 8.54777 21.2665 8.31445 20.4531C8.29091 20.1199 8.2408 19.7977 8.16406 19.4863C7.7437 19.3513 7.3355 19.1866 6.93945 18.9922C6.73226 19.1706 6.52459 19.3497 6.31641 19.5293C5.50554 20.0253 4.70345 20.011 3.91016 19.4863C3.44466 19.0208 2.97917 18.5553 2.51367 18.0898C1.9919 17.2963 1.97758 16.4942 2.4707 15.6836C2.65031 15.4754 2.82935 15.2677 3.00781 15.0605C2.80653 14.6501 2.63466 14.2276 2.49219 13.793C1.22936 13.8507 0.398631 13.2921 0 12.1172C0 11.3724 0 10.6276 0 9.88281C0.395172 8.69571 1.2259 8.15147 2.49219 8.25C2.62575 7.79939 2.79762 7.36252 3.00781 6.93945C2.75371 6.68538 2.5317 6.40608 2.3418 6.10156C1.99852 5.3393 2.05581 4.60883 2.51367 3.91016C2.97917 3.44466 3.44466 2.97917 3.91016 2.51367C4.70375 1.9919 5.50584 1.97758 6.31641 2.4707C6.52459 2.65031 6.73226 2.82935 6.93945 3.00781C7.34989 2.80653 7.77245 2.63466 8.20703 2.49219C8.18099 1.84769 8.34569 1.26045 8.70117 0.730469C9.02696 0.37093 9.42086 0.127441 9.88281 0ZM10.6133 6.23047C12.6344 6.17083 14.1598 7.00154 15.1895 8.72266C16.1114 10.6567 15.9109 12.4614 14.5879 14.1367C12.8826 15.8521 10.9275 16.203 8.72266 15.1895C6.67442 13.8921 5.90816 12.0516 6.42383 9.66797C7.13157 7.678 8.52805 6.53215 10.6133 6.23047Z" fill="#1B9B85"/>
</g>
</g>
</svg>
