<svg width="14" height="16" viewBox="0 0 14 16" fill="none" xmlns="http://www.w3.org/2000/svg">
<path opacity="0.971" fill-rule="evenodd" clip-rule="evenodd" d="M5.4952 0C6.81843 0 8.1417 0 9.46494 0C10.3822 0.303571 10.7781 0.933258 10.6527 1.88906C11.3613 1.88399 12.0698 1.88906 12.7783 1.9043C13.5493 2.06174 13.9557 2.52385 13.9973 3.29063C13.9672 3.97904 13.6182 4.43607 12.9502 4.66172C12.9398 7.75939 12.9293 10.857 12.9189 13.9547C12.7649 14.8309 12.2491 15.3793 11.3717 15.6C8.78767 15.6 6.20372 15.6 3.61973 15.6C2.77077 15.3868 2.25501 14.8587 2.07247 14.0156C2.06726 10.8976 2.05163 7.77965 2.02558 4.66172C1.19883 4.33997 0.870625 3.75092 1.04096 2.89453C1.22434 2.35023 1.60464 2.02015 2.18187 1.9043C2.90074 1.88906 3.61967 1.88399 4.33866 1.88906C4.22469 1.23177 4.42265 0.688414 4.93256 0.258984C5.11067 0.146723 5.29821 0.0603955 5.4952 0ZM5.83903 0.73125C7.01736 0.717362 8.19475 0.732597 9.37116 0.776953C9.59256 0.841492 9.74363 0.978601 9.8244 1.18828C9.86804 1.41925 9.88367 1.65284 9.87129 1.88906C8.28755 1.88906 6.70384 1.88906 5.12011 1.88906C5.11492 1.68568 5.12011 1.48256 5.13573 1.27969C5.24379 0.9404 5.47823 0.757587 5.83903 0.73125ZM2.27565 2.65078C5.7557 2.6457 9.23572 2.65078 12.7157 2.66602C13.2157 2.87885 13.3355 3.21908 13.0752 3.68672C12.9683 3.80119 12.838 3.87736 12.6845 3.91523C9.22528 3.93556 5.76611 3.93556 2.3069 3.91523C1.80091 3.73596 1.66025 3.40586 1.88492 2.925C1.98805 2.79148 2.11829 2.70008 2.27565 2.65078ZM2.80703 4.69219C5.9224 4.69219 9.03774 4.69219 12.1531 4.69219C12.1583 7.75939 12.1531 10.8266 12.1375 13.8938C12.0361 14.3683 11.7496 14.678 11.2779 14.823C10.0127 14.8579 8.74679 14.8731 7.48007 14.8688C6.22369 14.8732 4.96816 14.858 3.7135 14.823C3.13971 14.6344 2.84276 14.2434 2.82266 13.65C2.80703 10.6641 2.80181 7.67816 2.80703 4.69219Z" fill="#FFA0A0"/>
<path opacity="0.955" fill-rule="evenodd" clip-rule="evenodd" d="M5.18245 5.63551C5.4668 5.60851 5.62831 5.73039 5.66695 6.00113C5.6878 8.31676 5.6878 10.6324 5.66695 12.948C5.57411 13.27 5.37094 13.3665 5.05742 13.2375C4.99872 13.1904 4.95183 13.1346 4.91676 13.0699C4.89591 10.673 4.89591 8.27614 4.91676 5.87926C4.97218 5.75921 5.06073 5.67795 5.18245 5.63551Z" fill="#FFA0A0"/>
<path opacity="0.956" fill-rule="evenodd" clip-rule="evenodd" d="M7.40219 5.636C7.61518 5.61181 7.76624 5.69307 7.85542 5.87975C7.87627 8.27663 7.87627 10.6735 7.85542 13.0704C7.64843 13.3546 7.41922 13.3749 7.16775 13.1313C7.13734 13.0737 7.11649 13.0127 7.10524 12.9485C7.08439 10.6329 7.08439 8.31725 7.10524 6.00162C7.12302 5.81354 7.22202 5.69166 7.40219 5.636Z" fill="#FFA0A0"/>
<path opacity="0.956" fill-rule="evenodd" clip-rule="evenodd" d="M9.62069 5.63521C9.84875 5.6091 9.99982 5.70051 10.0739 5.90943C10.0948 8.27585 10.0948 10.6422 10.0739 13.0086C10.0167 13.189 9.8917 13.2905 9.69884 13.3133C9.4881 13.292 9.36306 13.1803 9.32374 12.9782C9.30289 10.6321 9.30289 8.28599 9.32374 5.9399C9.36594 5.78204 9.46493 5.68049 9.62069 5.63521Z" fill="#FFA0A0"/>
</svg>
