<svg width="22" height="22" viewBox="0 0 22 22" fill="none" xmlns="http://www.w3.org/2000/svg">
<path opacity="0.966" fill-rule="evenodd" clip-rule="evenodd" d="M9.88281 0C10.6276 0 11.3724 0 12.1172 0C13.3036 0.393571 13.8479 1.2243 13.75 2.49219C14.2006 2.62575 14.6375 2.79762 15.0605 3.00781C15.3146 2.75371 15.5939 2.5317 15.8984 2.3418C16.6607 1.99852 17.3912 2.05581 18.0898 2.51367C18.5553 2.97917 19.0208 3.44466 19.4863 3.91016C20.0081 4.70375 20.0224 5.50584 19.5293 6.31641C19.3497 6.52459 19.1706 6.73226 18.9922 6.93945C19.2024 7.36252 19.3743 7.79939 19.5078 8.25C20.7741 8.15147 21.6048 8.69571 22 9.88281C22 10.6276 22 11.3724 22 12.1172C21.6048 13.3043 20.7741 13.8485 19.5078 13.75C19.3743 14.2006 19.2024 14.6375 18.9922 15.0605C19.2463 15.3146 19.4683 15.5939 19.6582 15.8984C20.0015 16.6607 19.9442 17.3912 19.4863 18.0898C19.0208 18.5553 18.5553 19.0208 18.0898 19.4863C17.2966 20.011 16.4945 20.0253 15.6836 19.5293C15.4754 19.3497 15.2677 19.1706 15.0605 18.9922C14.6375 19.2024 14.2006 19.3743 13.75 19.5078C13.8485 20.7741 13.3043 21.6048 12.1172 22C11.3724 22 10.6276 22 9.88281 22C9.07053 21.7821 8.54777 21.2665 8.31445 20.4531C8.29091 20.1199 8.2408 19.7977 8.16406 19.4863C7.7437 19.3513 7.3355 19.1866 6.93945 18.9922C6.73226 19.1706 6.52459 19.3497 6.31641 19.5293C5.50554 20.0253 4.70345 20.011 3.91016 19.4863C3.44466 19.0208 2.97917 18.5553 2.51367 18.0898C1.9919 17.2963 1.97758 16.4942 2.4707 15.6836C2.65031 15.4754 2.82935 15.2677 3.00781 15.0605C2.80653 14.6501 2.63466 14.2276 2.49219 13.793C1.22936 13.8507 0.398631 13.2921 0 12.1172C0 11.3724 0 10.6276 0 9.88281C0.217836 9.07053 0.733459 8.54777 1.54688 8.31445C1.88003 8.29091 2.2023 8.2408 2.51367 8.16406C2.64867 7.7437 2.81338 7.3355 3.00781 6.93945C2.75371 6.68538 2.5317 6.40608 2.3418 6.10156C1.99852 5.3393 2.05581 4.60883 2.51367 3.91016C2.97917 3.44466 3.44466 2.97917 3.91016 2.51367C4.70375 1.9919 5.50584 1.97758 6.31641 2.4707C6.52459 2.65031 6.73226 2.82935 6.93945 3.00781C7.34989 2.80653 7.77245 2.63466 8.20703 2.49219C8.18099 1.84769 8.34569 1.26045 8.70117 0.730469C9.02696 0.37093 9.42086 0.127441 9.88281 0ZM10.3125 1.28906C10.7711 1.28191 11.2294 1.28907 11.6875 1.31055C12.0853 1.33598 12.3216 1.54367 12.3965 1.93359C12.4108 2.34896 12.4251 2.76432 12.4395 3.17969C12.4869 3.38191 12.6087 3.51798 12.8047 3.58789C13.5612 3.79436 14.2774 4.09514 14.9531 4.49023C15.1575 4.52504 15.3581 4.51069 15.5547 4.44727C15.8727 4.10049 16.2164 3.78538 16.5859 3.50195C16.8268 3.41869 17.056 3.44734 17.2734 3.58789C17.653 3.96745 18.0326 4.34702 18.4121 4.72656C18.6216 5.06314 18.593 5.37823 18.3262 5.67188C18.0684 5.92969 17.8105 6.1875 17.5527 6.44531C17.4893 6.64194 17.475 6.84247 17.5098 7.04688C17.931 7.78065 18.2605 8.55409 18.498 9.36719C18.5951 9.45012 18.7025 9.51457 18.8203 9.56055C19.2955 9.56454 19.7681 9.5932 20.2383 9.64648C20.5111 9.78351 20.6615 10.0055 20.6895 10.3125C20.7181 10.7708 20.7181 11.2292 20.6895 11.6875C20.664 12.0853 20.4563 12.3216 20.0664 12.3965C19.651 12.4108 19.2357 12.4251 18.8203 12.4395C18.6181 12.4869 18.482 12.6087 18.4121 12.8047C18.2056 13.5612 17.9049 14.2774 17.5098 14.9531C17.475 15.1575 17.4893 15.3581 17.5527 15.5547C17.8995 15.8727 18.2146 16.2164 18.498 16.5859C18.5813 16.8268 18.5527 17.056 18.4121 17.2734C18.0326 17.653 17.653 18.0326 17.2734 18.4121C16.9369 18.6216 16.6218 18.593 16.3281 18.3262C16.0703 18.0684 15.8125 17.8105 15.5547 17.5527C15.3581 17.4893 15.1575 17.475 14.9531 17.5098C14.2193 17.931 13.4459 18.2605 12.6328 18.498C12.5499 18.5951 12.4854 18.7025 12.4395 18.8203C12.4355 19.2955 12.4068 19.7681 12.3535 20.2383C12.2165 20.5111 11.9945 20.6615 11.6875 20.6895C11.2292 20.7181 10.7708 20.7181 10.3125 20.6895C9.91474 20.664 9.67841 20.4563 9.60352 20.0664C9.58921 19.651 9.57486 19.2357 9.56055 18.8203C9.51307 18.6181 9.39134 18.482 9.19531 18.4121C8.43876 18.2056 7.7226 17.9049 7.04688 17.5098C6.84247 17.475 6.64194 17.4893 6.44531 17.5527C6.12734 17.8995 5.78359 18.2146 5.41406 18.498C5.17318 18.5813 4.94403 18.5527 4.72656 18.4121C4.34702 18.0326 3.96745 17.653 3.58789 17.2734C3.37839 16.9369 3.40704 16.6218 3.67383 16.3281C3.93164 16.0703 4.18945 15.8125 4.44727 15.5547C4.51069 15.3581 4.52504 15.1575 4.49023 14.9531C4.06895 14.2193 3.73953 13.4459 3.50195 12.6328C3.40492 12.5499 3.29749 12.4854 3.17969 12.4395C2.70456 12.4355 2.2319 12.4068 1.76172 12.3535C1.48888 12.2165 1.33849 11.9945 1.31055 11.6875C1.2819 11.2292 1.2819 10.7708 1.31055 10.3125C1.33598 9.91474 1.54367 9.67841 1.93359 9.60352C2.34896 9.58921 2.76432 9.57486 3.17969 9.56055C3.38191 9.51307 3.51798 9.39134 3.58789 9.19531C3.79436 8.43876 4.09514 7.7226 4.49023 7.04688C4.52504 6.84247 4.51069 6.64194 4.44727 6.44531C4.10049 6.12734 3.78538 5.78359 3.50195 5.41406C3.41869 5.17318 3.44734 4.94403 3.58789 4.72656C3.96745 4.34702 4.34702 3.96745 4.72656 3.58789C4.9763 3.4089 5.23411 3.39458 5.5 3.54492C5.82811 3.83003 6.14324 4.13081 6.44531 4.44727C6.64194 4.51069 6.84247 4.52504 7.04688 4.49023C7.78065 4.06895 8.55409 3.73953 9.36719 3.50195C9.45012 3.40492 9.51457 3.29749 9.56055 3.17969C9.56454 2.70456 9.5932 2.2319 9.64648 1.76172C9.79284 1.49209 10.0148 1.33453 10.3125 1.28906Z" fill="#1B9B85"/>
<path opacity="0.962" fill-rule="evenodd" clip-rule="evenodd" d="M10.6133 6.18747C13.1787 6.16895 14.8616 7.37207 15.6621 9.79684C16.0955 11.9005 15.4725 13.612 13.793 14.9316C12.0526 16.0372 10.2766 16.0945 8.46483 15.1035C6.49863 13.7116 5.8183 11.8425 6.42382 9.49606C7.15845 7.55078 8.55494 6.4479 10.6133 6.18747ZM10.6562 7.5195C9.67505 7.67002 8.86582 8.12836 8.22851 8.8945C7.28319 10.2982 7.28319 11.7018 8.22851 13.1054C9.42334 14.4658 10.8628 14.8024 12.5469 14.1152C14.12 13.181 14.7144 11.8132 14.3301 10.0117C13.6968 8.32271 12.4721 7.492 10.6562 7.5195Z" fill="#1B9B85"/>
</svg>
