<svg width="21" height="24" viewBox="0 0 21 24" fill="none" xmlns="http://www.w3.org/2000/svg">
<path opacity="0.963" fill-rule="evenodd" clip-rule="evenodd" d="M11.6458 0.0136374C12.5935 -0.0838222 13.0056 0.341089 12.8818 1.28838C12.8496 1.41732 12.7921 1.53321 12.7094 1.63603C12.3061 2.03281 11.9132 2.43841 11.5308 2.85283C15.5858 3.41708 18.47 5.56096 20.1833 9.28447C21.6551 13.2126 21.1377 16.8436 18.631 20.1777C15.8707 23.3101 12.4308 24.5172 8.31128 23.7991C3.93906 22.676 1.22738 19.9044 0.176255 15.4843C-0.454822 11.6227 0.608768 8.32969 3.36703 5.60511C3.82155 5.27107 4.28148 5.26139 4.74682 5.57614C5.09585 6.01784 5.12459 6.48138 4.83306 6.96676C2.50753 9.14981 1.58767 11.8345 2.07347 15.0208C2.70651 17.9182 4.34501 20.0138 6.98898 21.3076C9.981 22.5361 12.8172 22.2464 15.4977 20.4384C18.3745 18.1621 19.4956 15.1974 18.8609 11.5442C18.1581 8.72585 16.5004 6.70753 13.8879 5.48922C13.0727 5.14858 12.2294 4.93616 11.3583 4.85185C11.9084 5.36743 12.4162 5.91788 12.8818 6.50322C13.0417 7.28354 12.7351 7.72773 11.962 7.8359C11.813 7.83214 11.6693 7.80317 11.5308 7.74899C10.4113 6.67873 9.30945 5.58744 8.22505 4.47523C8.00531 4.02461 8.04366 3.59971 8.34003 3.20049C9.30778 2.22512 10.2756 1.24975 11.2433 0.27438C11.3812 0.186063 11.5153 0.0991493 11.6458 0.0136374Z" fill="#1B9B85"/>
</svg>
