<svg width="24" height="24" viewBox="0 0 24 24" fill="none" xmlns="http://www.w3.org/2000/svg">
<path opacity="0.989" fill-rule="evenodd" clip-rule="evenodd" d="M11.2266 0.679805C13.9353 0.48345 16.0213 1.5147 17.4844 3.77356C17.9686 4.61664 18.2498 5.52288 18.3281 6.49231C18.3516 7.60156 18.3594 8.71095 18.3516 9.82043C19.4879 9.90227 20.1832 10.496 20.4375 11.6017C20.4688 14.9142 20.4688 18.2267 20.4375 21.5392C20.2156 22.4329 19.661 23.0032 18.7734 23.2501C14.2422 23.2814 9.71095 23.2814 5.17969 23.2501C4.27644 23.0187 3.72175 22.4484 3.51563 21.5392C3.48437 18.2267 3.48437 14.9142 3.51563 11.6017C3.76998 10.496 4.46529 9.90227 5.60156 9.82043C5.58211 8.5691 5.60555 7.31913 5.67188 6.07043C6.30389 3.00862 8.15545 1.21174 11.2266 0.679805ZM11.3672 2.13293C13.7316 1.99826 15.4425 2.98263 16.5 5.08606C16.7059 5.58171 16.8309 6.09734 16.875 6.63293C16.8984 7.69531 16.9063 8.75782 16.8984 9.82043C13.6172 9.82043 10.3359 9.82043 7.05469 9.82043C7.03495 8.63149 7.05839 7.44401 7.125 6.25793C7.47816 4.3735 8.5485 3.08444 10.3359 2.39074C10.6821 2.289 11.0258 2.20306 11.3672 2.13293ZM11.5547 13.4298C12.5911 13.3191 13.3646 13.7097 13.875 14.6017C14.3243 15.9056 13.9336 16.8587 12.7031 17.4611C12.6875 17.9923 12.6719 18.5236 12.6563 19.0548C12.5472 19.6291 12.2113 19.8244 11.6484 19.6407C11.4301 19.5092 11.3129 19.3138 11.2969 19.0548C11.2813 18.5236 11.2656 17.9923 11.25 17.4611C10.1259 16.9314 9.70402 16.0564 9.98438 14.8361C10.2738 14.1022 10.7972 13.6334 11.5547 13.4298Z" fill="white"/>
</svg>
