<svg width="24" height="24" viewBox="0 0 24 24" fill="none" xmlns="http://www.w3.org/2000/svg">
<path opacity="0.969" fill-rule="evenodd" clip-rule="evenodd" d="M11.2266 0.679805C13.9353 0.48345 16.0213 1.5147 17.4844 3.77356C17.9686 4.61664 18.2498 5.52288 18.3281 6.49231C18.3516 7.60156 18.3594 8.71095 18.3516 9.82043C19.4879 9.90227 20.1832 10.496 20.4375 11.6017C20.4688 14.9142 20.4688 18.2267 20.4375 21.5392C20.2477 22.4634 19.693 23.0337 18.7734 23.2501C14.2422 23.2814 9.71095 23.2814 5.17969 23.2501C4.26011 23.0337 3.70542 22.4634 3.51563 21.5392C3.48437 18.2267 3.48437 14.9142 3.51563 11.6017C3.76998 10.496 4.46529 9.90227 5.60156 9.82043C5.58211 8.5691 5.60555 7.31913 5.67188 6.07043C6.30389 3.00862 8.15545 1.21174 11.2266 0.679805ZM11.3672 2.13293C13.7316 1.99826 15.4425 2.98263 16.5 5.08606C16.7059 5.58171 16.8309 6.09734 16.875 6.63293C16.8984 7.69531 16.9063 8.75782 16.8984 9.82043C13.6172 9.82043 10.3359 9.82043 7.05469 9.82043C7.03495 8.63149 7.05839 7.44401 7.125 6.25793C7.47816 4.3735 8.5485 3.08444 10.3359 2.39074C10.6821 2.289 11.0258 2.20306 11.3672 2.13293ZM5.60156 11.2736C9.85158 11.2657 14.1016 11.2736 18.3516 11.297C18.6835 11.3101 18.8945 11.4742 18.9844 11.7892C19.0156 14.9767 19.0156 18.1642 18.9844 21.3517C18.9297 21.5939 18.7813 21.7423 18.5391 21.797C14.1641 21.8283 9.78905 21.8283 5.41406 21.797C5.17186 21.7423 5.02345 21.5939 4.96875 21.3517C4.93749 18.1642 4.93749 14.9767 4.96875 11.7892C5.06925 11.4777 5.28019 11.3059 5.60156 11.2736ZM11.7422 14.8361C12.4372 14.7884 12.7262 15.1009 12.6094 15.7736C12.3295 16.2155 11.9623 16.3015 11.5078 16.0314C11.2547 15.7219 11.2313 15.4016 11.4375 15.0704C11.5296 14.9743 11.6312 14.8962 11.7422 14.8361Z" fill="#B6DFD8"/>
<path opacity="0.958" fill-rule="evenodd" clip-rule="evenodd" d="M11.5081 13.3821C13.0675 13.2624 13.9425 13.9734 14.1331 15.5149C14.0826 16.4685 13.6217 17.1326 12.7503 17.5071C12.7347 18.0383 12.719 18.5696 12.7034 19.1008C12.6604 19.5403 12.4182 19.759 11.9769 19.7571C11.5355 19.759 11.2933 19.5403 11.2503 19.1008C11.2347 18.5696 11.219 18.0383 11.2034 17.5071C10.1233 17.0032 9.68575 16.1594 9.89092 14.9758C10.1298 14.1353 10.6689 13.6041 11.5081 13.3821ZM11.7425 14.8352C11.6315 14.8953 11.5299 14.9735 11.4378 15.0696C11.2315 15.4007 11.255 15.721 11.5081 16.0305C11.9626 16.3006 12.3298 16.2147 12.6097 15.7727C12.7265 15.1001 12.4375 14.7876 11.7425 14.8352Z" fill="#B6DFD8"/>
</svg>
