<svg width="24" height="24" viewBox="0 0 24 24" fill="none" xmlns="http://www.w3.org/2000/svg">
<path opacity="0.991" fill-rule="evenodd" clip-rule="evenodd" d="M11.1535 0C11.6379 0 12.1223 0 12.6066 0C14.9643 0.412026 16.5658 1.74015 17.4113 3.98438C18.15 6.95756 17.236 9.26222 14.6691 10.8984C13.0008 11.7137 11.2976 11.7918 9.55975 11.1328C7.06572 9.88547 5.91728 7.86202 6.11444 5.0625C6.41824 3.10277 7.42605 1.62621 9.13788 0.632813C9.77819 0.302088 10.45 0.0911503 11.1535 0Z" fill="white"/>
<path opacity="0.994" fill-rule="evenodd" clip-rule="evenodd" d="M18.5127 24.0005C14.1846 24.0005 9.85643 24.0005 5.52832 24.0005C4.0308 23.8081 2.96049 23.0268 2.31738 21.6567C2.17566 21.3097 2.08191 20.9504 2.03613 20.5786C1.91024 18.7741 2.11336 17.0085 2.6455 15.2817C2.99492 14.1834 3.59648 13.2537 4.45019 12.4927C5.41169 11.766 6.48982 11.4847 7.68457 11.6489C8.20033 11.9379 8.70035 12.2505 9.18457 12.5864C10.9722 13.6238 12.7847 13.6706 14.6221 12.727C15.1923 12.3559 15.7705 11.9965 16.3564 11.6489C18.2785 11.4576 19.7395 12.1842 20.7393 13.8286C21.4893 15.2504 21.9112 16.766 22.0049 18.3755C22.0723 19.1263 22.0723 19.8763 22.0049 20.6255C21.629 22.5671 20.4649 23.6921 18.5127 24.0005Z" fill="white"/>
</svg>
