<svg width="36" height="36" viewBox="0 0 36 36" fill="none" xmlns="http://www.w3.org/2000/svg">
<g id="type=travelling">
<circle id="Ellipse 173" cx="18" cy="18" r="18" fill="#FFF6F5"/>
<path id="Vector" fill-rule="evenodd" clip-rule="evenodd" d="M10.7063 25.2119C10.708 24.5559 11.0807 23.9147 11.6878 23.1969L8.17704 20.9768C7.95568 20.8808 7.96057 20.7457 8.08915 20.5862L8.83296 19.9514C8.96805 19.8684 9.11128 19.8326 9.26591 19.8749L13.5986 20.6074L17.2086 16.6979L8.78088 10.9964C8.56766 10.871 8.54976 10.7294 8.76949 10.5651L9.98531 9.595L20.9716 12.6826L24.2171 9.21251C25.3059 8.27013 26.3639 7.84858 27.1761 8.04878C27.6237 8.15945 27.7815 8.29292 27.9199 8.71284C28.1884 9.53641 27.7718 10.6432 26.7871 11.7825L23.317 15.0279L26.4046 26.0143L25.4345 27.2301C25.2701 27.4482 25.1285 27.4303 25.0032 27.2187L19.3001 18.7926L15.3906 22.401L16.123 26.7337C16.1653 26.8867 16.1311 27.0299 16.0465 27.1666L15.4117 27.9104C15.2539 28.039 15.1171 28.0439 15.0211 27.8225L12.8011 24.3118C12.08 24.9205 11.4388 25.2932 10.7796 25.2932C10.7194 25.2916 10.7063 25.2705 10.7063 25.2119Z" fill="#AA3F39"/>
</g>
</svg>
