<svg width="36" height="36" viewBox="0 0 36 36" fill="none" xmlns="http://www.w3.org/2000/svg">
<g id="type=shoes">
<circle id="Ellipse 173" cx="18" cy="18" r="18" fill="#FFECF0"/>
<g id="Group">
<path id="Vector" d="M29.7751 21.5967L29.6514 21.3848L29.549 21.6115C28.8808 23.0899 26.6593 23.9734 24.8975 23.9734C22.6542 23.9734 11.5786 23.5808 10.1368 23.4852C9.85174 23.4655 9.55402 23.4563 9.19977 23.4563C8.98004 23.4563 8.776 23.4595 8.57866 23.4625C8.40727 23.4652 8.24555 23.4677 8.0936 23.4677C7.61947 23.4677 7.22961 23.32 6.945 23.2121C6.76056 23.1422 6.61484 23.087 6.49417 23.087C6.40113 23.087 6.32574 23.1203 6.27011 23.1862C6.19725 23.2722 6.16455 23.4059 6.16713 23.6069C6.18922 25.3451 6.97955 25.4795 8.09365 25.4795C8.24666 25.4795 8.40954 25.4769 8.5822 25.4743C8.77864 25.4712 8.98178 25.4681 9.19977 25.4681C9.54868 25.4681 9.84149 25.4771 10.1215 25.4964C11.5651 25.5921 22.652 25.9851 24.8975 25.9851C26.0373 25.9851 27.2973 25.6326 28.2679 25.0424C29.3848 24.3631 29.9999 23.4491 29.9999 22.4685C29.9999 22.1454 29.9243 21.852 29.7751 21.5967Z" fill="#E50037"/>
<path id="Vector_2" d="M7.94388 22.633C8.09577 22.633 8.25734 22.6305 8.42868 22.6279C8.62358 22.6248 8.82519 22.6216 9.04149 22.6216C9.38834 22.6216 9.67877 22.6306 9.95593 22.6499C11.3882 22.7457 22.389 23.1386 24.6174 23.1386C25.7487 23.1386 26.9991 22.7861 27.9625 22.1956C29.0709 21.5163 29.6812 20.6023 29.6812 19.622C29.6812 18.2002 28.2882 17.741 26.8134 17.2548C26.0093 16.9898 25.1778 16.7157 24.4751 16.2771C24.1587 16.0791 23.6761 15.7921 23.0881 15.4492C23.0891 15.4294 23.0907 15.4097 23.0907 15.3897C23.0907 14.8043 22.6818 14.3281 22.179 14.3281C21.9534 14.3281 21.7471 14.4245 21.5877 14.5833C21.3748 14.4613 21.1564 14.3366 20.9343 14.2099C20.9144 13.6448 20.5146 13.192 20.0246 13.192C19.8266 13.192 19.6438 13.2666 19.4942 13.3919C19.295 13.2791 19.0955 13.1663 18.8966 13.0539C18.9008 13.0125 18.9036 12.9707 18.9036 12.928C18.9036 12.3427 18.4947 11.8665 17.9921 11.8665C17.7398 11.8665 17.5112 11.9865 17.346 12.18C15.4028 11.0873 13.8098 10.1998 13.667 10.1203C13.58 10.0513 13.4831 10.0148 13.3858 10.0148C13.2289 10.0148 13.078 10.1036 12.9821 10.2527L11.9088 11.9289C11.7649 12.1557 11.7085 12.3844 11.7409 12.6086C11.805 13.0529 12.1986 13.3677 12.5149 13.6205C12.6408 13.7213 12.828 13.8709 12.8581 13.9436C12.8576 13.9441 12.8572 13.9447 12.8567 13.9451C12.6818 14.1443 12.1204 14.4407 11.2903 14.4407C10.8106 14.4407 10.305 14.334 9.82828 14.1319C9.24495 13.8845 9.00393 13.2059 8.81029 12.6607C8.64836 12.2046 8.50845 11.8108 8.19763 11.8108C7.96184 11.8108 7.68901 12.0571 7.28399 12.6364C5.90731 14.6741 5.97166 17.7875 6.01868 20.0608C6.0237 20.3042 6.02856 20.5382 6.03136 20.7602C6.05323 22.4987 6.83781 22.633 7.94388 22.633ZM19.4823 16.3165C19.4823 16.3165 19.6589 16.1129 19.8771 16.189C20.0671 16.2552 20.5162 16.3961 20.791 16.4756C21.026 16.5436 20.8138 16.7587 20.8138 16.7587L17.2466 20.5609C17.2437 20.5633 17.0986 20.7174 16.8785 20.7174C16.5231 20.7174 15.8341 20.7143 15.5533 20.7143C15.3199 20.7143 15.5136 20.485 15.5136 20.485C15.5136 20.485 19.4818 16.3165 19.4823 16.3165ZM16.7662 15.419C16.7671 15.418 17.0415 15.1029 17.3718 15.2247C17.5393 15.2864 17.9324 15.4 18.1831 15.4817C18.3975 15.5515 18.1702 15.8091 18.17 15.8093L13.7543 20.4713C13.7512 20.4739 13.6491 20.6888 13.3049 20.6888C12.9166 20.6888 12.1755 20.7095 11.8723 20.7095C11.7009 20.7095 11.8532 20.4948 11.8531 20.495L16.7662 15.419Z" fill="#E50037"/>
</g>
</g>
</svg>
