<svg width="36" height="36" viewBox="0 0 36 36" fill="none" xmlns="http://www.w3.org/2000/svg">
<g id="type=bus">
<circle id="Ellipse 173" cx="18" cy="18" r="18" fill="#F2F6FF"/>
<path id="Vector" fill-rule="evenodd" clip-rule="evenodd" d="M9 27.25C9 27.664 9.336 28 9.75 28H11.365C11.5426 28 11.7145 27.937 11.85 27.8222C11.9855 27.7074 12.0759 27.5482 12.105 27.373L12.5 25H23.5L23.895 27.373C23.9241 27.5482 24.0145 27.7074 24.15 27.8222C24.2855 27.937 24.4574 28 24.635 28H26.25C26.4489 28 26.6397 27.921 26.7803 27.7803C26.921 27.6397 27 27.4489 27 27.25V16L27.78 15.22C27.9207 15.0795 27.9998 14.8888 28 14.69V12.75C28 12.5511 27.921 12.3603 27.7803 12.2197C27.6397 12.079 27.4489 12 27.25 12H27V11.005C27 9.834 26.186 8.822 25.03 8.632C23.299 8.347 20.65 8 18 8C15.35 8 12.701 8.347 10.97 8.632C9.814 8.822 9 9.834 9 11.005V12H8.75C8.55109 12 8.36032 12.079 8.21967 12.2197C8.07902 12.3603 8 12.5511 8 12.75V14.69C8 14.888 8.079 15.079 8.22 15.22L9 16V27.25ZM14 20.5C14 20.8978 13.842 21.2794 13.5607 21.5607C13.2794 21.842 12.8978 22 12.5 22C12.1022 22 11.7206 21.842 11.4393 21.5607C11.158 21.2794 11 20.8978 11 20.5C11 20.1022 11.158 19.7206 11.4393 19.4393C11.7206 19.158 12.1022 19 12.5 19C12.8978 19 13.2794 19.158 13.5607 19.4393C13.842 19.7206 14 20.1022 14 20.5ZM23.5 22C23.8978 22 24.2794 21.842 24.5607 21.5607C24.842 21.2794 25 20.8978 25 20.5C25 20.1022 24.842 19.7206 24.5607 19.4393C24.2794 19.158 23.8978 19 23.5 19C23.1022 19 22.7206 19.158 22.4393 19.4393C22.158 19.7206 22 20.1022 22 20.5C22 20.8978 22.158 21.2794 22.4393 21.5607C22.7206 21.842 23.1022 22 23.5 22ZM11 11.145V17H25V11.145C25 10.775 24.73 10.46 24.362 10.413C23.196 10.263 20.598 9.971 18 9.971C15.402 9.971 12.804 10.262 11.638 10.413C11.4608 10.4364 11.2981 10.5236 11.1807 10.6584C11.0632 10.7932 10.999 10.9662 11 11.145Z" fill="#5D88F8"/>
</g>
</svg>
