<svg width="36" height="36" viewBox="0 0 36 36" fill="none" xmlns="http://www.w3.org/2000/svg">
<g id="type=manicure">
<circle id="Ellipse 173" cx="18" cy="18" r="18" fill="#F7F2FF"/>
<g id="Group 1000002418">
<g id="Group">
<path id="Vector" opacity="0.965" fill-rule="evenodd" clip-rule="evenodd" d="M8.2733 6.96094C10.1102 7.26113 11.9384 7.61269 13.7577 8.01562C13.9724 8.1768 14.0427 8.38774 13.9686 8.64844C13.6841 9.13911 13.3872 9.62348 13.078 10.1016C13.0429 10.1548 13.0507 10.2016 13.1014 10.2422C13.7031 10.6134 14.3124 10.9727 14.9296 11.3203C15.0559 11.0996 15.2434 10.9747 15.4921 10.9453C17.0718 11.2895 18.6499 11.641 20.2264 12C20.4102 12.1132 20.5039 12.2773 20.5077 12.4922C20.2266 13.734 19.5391 14.6793 18.4452 15.3281C18.1722 15.5225 17.8909 15.5381 17.6014 15.375C16.6639 14.5937 15.7264 13.8125 14.7889 13.0312C14.5196 12.8442 14.3947 12.5864 14.4139 12.2578C13.7616 11.8731 13.1131 11.4825 12.4686 11.0859C12.1092 11.664 11.7499 12.2422 11.3905 12.8203C11.1885 13.0045 10.9619 13.0435 10.7108 12.9375C9.50117 11.7748 8.30586 10.5951 7.12486 9.39844C6.92717 9.14457 6.91154 8.87895 7.07799 8.60156C7.39049 8.13281 7.70299 7.66406 8.01549 7.19531C8.09657 7.10616 8.1825 7.02803 8.2733 6.96094ZM15.7733 12.0703C16.946 12.3361 18.1179 12.6096 19.2889 12.8906C19.0084 13.4915 18.5865 13.9681 18.0233 14.3203C17.2196 13.6651 16.4227 13.001 15.6327 12.3281C15.6861 12.2447 15.7329 12.1587 15.7733 12.0703Z" fill="#985DF8"/>
</g>
<g id="Group_2">
<path id="Vector_2" opacity="0.923" fill-rule="evenodd" clip-rule="evenodd" d="M21.3047 6.96091C21.6383 6.89716 21.8649 7.02217 21.9844 7.33591C22.0157 7.60154 22.0157 7.86716 21.9844 8.13278C21.8232 8.47497 21.5654 8.57653 21.2109 8.43747C21.1229 8.36515 21.0526 8.27921 21 8.17966C20.9687 7.86716 20.9687 7.55466 21 7.24216C21.07 7.11028 21.1716 7.01653 21.3047 6.96091Z" fill="#985DF8"/>
</g>
<g id="Group_3">
<path id="Vector_3" opacity="0.927" fill-rule="evenodd" clip-rule="evenodd" d="M19.8048 8.46092C20.0865 8.45313 20.3677 8.46095 20.6485 8.48436C20.8925 8.55805 21.0018 8.72212 20.9767 8.97655C21.0018 9.23098 20.8925 9.39505 20.6485 9.46874C20.3673 9.49999 20.086 9.49999 19.8048 9.46874C19.4939 9.32357 19.3923 9.08138 19.5001 8.74217C19.5701 8.61029 19.6717 8.51654 19.8048 8.46092Z" fill="#985DF8"/>
</g>
<g id="Group_4">
<path id="Vector_4" opacity="0.925" fill-rule="evenodd" clip-rule="evenodd" d="M22.289 8.46096C22.6226 8.44105 22.9507 8.46449 23.2734 8.53127C23.6057 8.88096 23.5745 9.19346 23.1797 9.46877C22.8465 9.51208 22.5184 9.49646 22.1953 9.4219C21.8621 9.06452 21.8933 8.74421 22.289 8.46096Z" fill="#985DF8"/>
</g>
<g id="Group_5">
<path id="Vector_5" opacity="0.922" fill-rule="evenodd" clip-rule="evenodd" d="M21.3516 9.4453C21.6542 9.42068 21.8652 9.54569 21.9844 9.8203C22.0157 10.0859 22.0157 10.3515 21.9844 10.6172C21.7926 11.0099 21.5035 11.0959 21.1172 10.875C21.0609 10.8327 21.0218 10.778 21 10.7109C20.9687 10.3828 20.9687 10.0547 21 9.72655C21.1 9.60221 21.2172 9.50846 21.3516 9.4453Z" fill="#985DF8"/>
</g>
<g id="Group_6">
<path id="Vector_6" opacity="0.924" fill-rule="evenodd" clip-rule="evenodd" d="M26.8359 9.44534C27.1161 9.42523 27.3271 9.5346 27.4688 9.77346C27.5 10.0703 27.5 10.3672 27.4688 10.6641C27.3263 10.9502 27.0997 11.0517 26.7891 10.9688C26.6563 10.8985 26.5547 10.7969 26.4844 10.6641C26.4531 10.3672 26.4531 10.0703 26.4844 9.77346C26.566 9.62132 26.6832 9.51194 26.8359 9.44534Z" fill="#985DF8"/>
</g>
<g id="Group_7">
<path id="Vector_7" opacity="0.923" fill-rule="evenodd" clip-rule="evenodd" d="M25.3361 10.9453C25.6021 10.9375 25.8678 10.9453 26.1329 10.9687C26.4751 11.1299 26.5767 11.3877 26.4376 11.7422C26.3653 11.8302 26.2794 11.9005 26.1798 11.9531C25.8311 11.9966 25.4873 11.9809 25.1486 11.9062C24.8513 11.5084 24.9138 11.1881 25.3361 10.9453Z" fill="#985DF8"/>
</g>
<g id="Group_8">
<path id="Vector_8" opacity="0.921" fill-rule="evenodd" clip-rule="evenodd" d="M27.8202 10.9453C28.0863 10.9375 28.3519 10.9453 28.6171 10.9687C29.0099 11.1605 29.0958 11.4496 28.8749 11.8359C28.8326 11.8922 28.7779 11.9313 28.7109 11.9531C28.3827 11.9844 28.0546 11.9844 27.7265 11.9531C27.3304 11.5726 27.3617 11.2366 27.8202 10.9453Z" fill="#985DF8"/>
</g>
<g id="Group_9">
<path id="Vector_9" opacity="0.927" fill-rule="evenodd" clip-rule="evenodd" d="M26.7422 11.9766C26.8992 11.9688 27.0555 11.9767 27.2109 12C27.346 12.0587 27.4319 12.1602 27.4688 12.3047C27.5 12.586 27.5 12.8672 27.4688 13.1485C27.3236 13.4593 27.0814 13.5609 26.7422 13.4531C26.6072 13.3945 26.5212 13.293 26.4844 13.1485C26.4531 12.8672 26.4531 12.586 26.4844 12.3047C26.5297 12.1584 26.6156 12.049 26.7422 11.9766Z" fill="#985DF8"/>
</g>
<g id="Group_10">
<path id="Vector_10" opacity="0.978" fill-rule="evenodd" clip-rule="evenodd" d="M22.7577 12.4453C23.1801 12.4251 23.5707 12.5267 23.9295 12.75C25.0539 13.6911 25.5852 14.902 25.5233 16.3828C26.2418 16.9127 26.7027 17.6158 26.9061 18.4922C26.9835 21.8968 26.9991 25.303 26.953 28.711C26.8943 28.846 26.7928 28.9319 26.6483 28.9688C24.1952 29 21.742 29 19.2889 28.9688C19.1561 28.8985 19.0545 28.7969 18.9842 28.6641C18.9382 25.2876 18.9539 21.9126 19.0311 18.5391C19.2352 17.6475 19.7039 16.9288 20.4374 16.3828C20.3533 14.9308 20.8611 13.7355 21.9608 12.7969C22.2084 12.6259 22.474 12.5087 22.7577 12.4453ZM20.4139 17.8828C20.4529 18.531 20.4763 19.1872 20.4842 19.8516C20.6674 20.5662 21.1127 21.0428 21.8202 21.2813C22.885 21.6558 23.885 21.5308 24.8202 20.9063C25.1541 20.6684 25.365 20.348 25.453 19.9453C25.4686 19.2578 25.4842 18.5703 25.4999 17.8828C25.7172 18.1929 25.8578 18.5366 25.9217 18.9141C25.9452 21.9296 25.953 24.9453 25.9452 27.961C23.9608 27.961 21.9764 27.961 19.992 27.961C19.9842 24.9922 19.992 22.0234 20.0155 19.0547C20.0692 18.6357 20.202 18.2451 20.4139 17.8828Z" fill="#985DF8"/>
</g>
<g id="Group_11">
<path id="Vector_11" opacity="0.984" fill-rule="evenodd" clip-rule="evenodd" d="M10.8516 15.4453C12.2735 15.4375 13.6954 15.4453 15.1172 15.4688C15.2783 15.5206 15.3955 15.6221 15.4688 15.7734C15.4844 16.7578 15.5 17.7422 15.5156 18.7266C15.9233 19.1186 16.314 19.5249 16.6875 19.9453C16.9066 20.3218 17.0082 20.728 16.9922 21.1641C16.8671 23.416 16.7186 25.666 16.5469 27.9141C16.3439 28.4608 15.9611 28.8123 15.3984 28.9688C13.7891 29 12.1797 29 10.5703 28.9688C9.99749 28.849 9.61468 28.5131 9.42188 27.9609C9.25019 25.9329 9.10957 23.9016 9 21.8672C8.96875 21.4453 8.96875 21.0234 9 20.6016C9.06407 20.3311 9.17344 20.0811 9.32813 19.8516C9.70313 19.4766 10.0781 19.1016 10.4531 18.7266C10.4687 17.7266 10.4844 16.7266 10.5 15.7266C10.6 15.6022 10.7172 15.5085 10.8516 15.4453ZM11.5078 16.4766C12.4922 16.4766 13.4766 16.4766 14.4609 16.4766C14.4609 17.1328 14.4609 17.7891 14.4609 18.4453C13.4766 18.4453 12.4922 18.4453 11.5078 18.4453C11.5078 17.7891 11.5078 17.1328 11.5078 16.4766ZM11.8828 24.4922C12.6173 24.4844 13.3517 24.4922 14.0859 24.5156C14.4583 24.689 14.5365 24.9468 14.3203 25.2891C14.2362 25.3923 14.1268 25.447 13.9922 25.4531C13.3203 25.4844 12.6484 25.4844 11.9766 25.4531C11.5553 25.3683 11.4225 25.1262 11.5781 24.7266C11.6627 24.6175 11.7643 24.5394 11.8828 24.4922ZM11.8828 25.9922C12.6173 25.9844 13.3517 25.9922 14.0859 26.0156C14.4583 26.189 14.5365 26.4468 14.3203 26.7891C14.2362 26.8923 14.1268 26.947 13.9922 26.9531C13.3203 26.9844 12.6484 26.9844 11.9766 26.9531C11.5553 26.8683 11.4225 26.6262 11.5781 26.2266C11.6627 26.1175 11.7643 26.0394 11.8828 25.9922Z" fill="#985DF8"/>
</g>
<g id="Group_12">
<path id="Vector_12" opacity="0.947" fill-rule="evenodd" clip-rule="evenodd" d="M21.7268 22.4766C22.5551 22.4687 23.3832 22.4766 24.2112 22.5C24.4593 22.661 24.5452 22.8876 24.469 23.1797C24.3957 23.331 24.2785 23.4326 24.1174 23.4844C23.3518 23.5156 22.5861 23.5156 21.8205 23.4844C21.4783 23.3232 21.3768 23.0654 21.5158 22.7109C21.5959 22.6389 21.6662 22.5608 21.7268 22.4766Z" fill="#985DF8"/>
</g>
<g id="Group_13">
<path id="Vector_13" opacity="0.947" fill-rule="evenodd" clip-rule="evenodd" d="M21.7268 23.9766C22.5551 23.9687 23.3832 23.9766 24.2112 24C24.4593 24.161 24.5452 24.3876 24.469 24.6797C24.3957 24.831 24.2785 24.9326 24.1174 24.9844C23.3518 25.0156 22.5861 25.0156 21.8205 24.9844C21.4783 24.8232 21.3768 24.5654 21.5158 24.2109C21.5959 24.1389 21.6662 24.0608 21.7268 23.9766Z" fill="#985DF8"/>
</g>
</g>
</g>
</svg>
