<svg width="36" height="36" viewBox="0 0 36 36" fill="none" xmlns="http://www.w3.org/2000/svg">
<g id="type=presents">
<circle id="Ellipse 173" cx="18" cy="18" r="18" fill="#FFEDF9"/>
<path id="gift" fill-rule="evenodd" clip-rule="evenodd" d="M13.5 9C13.1022 9 12.7206 9.15804 12.4393 9.43934C12.158 9.72064 12 10.1022 12 10.5C12 10.8978 12.158 11.2794 12.4393 11.5607C12.7206 11.842 13.1022 12 13.5 12H16H16.654C16.5319 11.6806 16.3774 11.3294 16.1863 10.9819C15.5573 9.83834 14.6939 9 13.5 9ZM10 10.5C10 11.0238 10.1174 11.5356 10.3377 12H8C7.44772 12 7 12.4477 7 13V17C7 17.5523 7.44772 18 8 18H17V14H18H19V18H28C28.5523 18 29 17.5523 29 17V13C29 12.4477 28.5523 12 28 12H25.6623C25.8826 11.5356 26 11.0238 26 10.5C26 9.57174 25.6313 8.6815 24.9749 8.02513C24.3185 7.36875 23.4283 7 22.5 7C20.1939 7 18.8073 8.66166 18.0613 10.0181C18.0405 10.0559 18.0201 10.0937 18 10.1314C17.9799 10.0937 17.9595 10.0559 17.9387 10.0181C17.1927 8.66166 15.8061 7 13.5 7C12.5717 7 11.6815 7.36875 11.0251 8.02513C10.3687 8.6815 10 9.57174 10 10.5ZM22.5 12C22.8978 12 23.2794 11.842 23.5607 11.5607C23.842 11.2794 24 10.8978 24 10.5C24 10.1022 23.842 9.72064 23.5607 9.43934C23.2794 9.15804 22.8978 9 22.5 9C21.3061 9 20.4427 9.83834 19.8137 10.9819C19.6226 11.3294 19.4681 11.6806 19.346 12H20H22.5ZM9 21C9 20.4477 9.44772 20 10 20H17V28C17 28.5523 16.5523 29 16 29H10C9.44772 29 9 28.5523 9 28V21ZM27 21C27 20.4477 26.5523 20 26 20H19V28C19 28.5523 19.4477 29 20 29H26C26.5523 29 27 28.5523 27 28V21Z" fill="#822B66"/>
</g>
</svg>
