<svg width="36" height="36" viewBox="0 0 36 36" fill="none" xmlns="http://www.w3.org/2000/svg">
<g id="type=cafe">
<circle id="Ellipse 173" cx="18" cy="18" r="18" fill="#FFF8ED"/>
<g id="Group 1000002419">
<g id="Group">
<g id="Group_2">
<path id="Vector" d="M18.0002 8.00482C16.7795 8.00482 15.7647 8.772 15.5825 9.76292C16.3195 9.63768 17.0815 9.57788 17.8615 9.57788H18.1389C18.9188 9.57788 19.6809 9.6355 20.418 9.76073C20.2358 8.76986 19.221 8.00482 18.0002 8.00482Z" fill="#F5AA2B"/>
</g>
</g>
<g id="Group_3">
<g id="Group_4">
<path id="Vector_2" d="M18.1385 10.6005H17.8612C12.1533 10.6005 7.4917 14.5146 7.4917 19.3467V20.9789H28.508V19.3467C28.508 14.5146 23.8464 10.6005 18.1385 10.6005Z" fill="#F5AA2B"/>
</g>
</g>
<g id="Group_5">
<g id="Group_6">
<path id="Vector_3" d="M29.698 22.6503C29.6066 22.5808 29.4987 22.5167 29.3795 22.4832C29.2897 22.5085 29.1939 22.5126 29.0941 22.5126H6.90586C6.80602 22.5126 6.71025 22.5085 6.62044 22.4832C6.50123 22.5167 6.39338 22.5758 6.30192 22.6452C6.11705 22.7856 6 22.9951 6 23.222C6 23.6455 6.40561 23.9952 6.90586 23.9952H29.0941C29.5944 23.9952 30 23.648 30 23.2245C30 22.9977 29.883 22.7907 29.698 22.6503Z" fill="#F5AA2B"/>
</g>
</g>
</g>
</g>
</svg>
