<svg width="36" height="36" viewBox="0 0 36 36" fill="none" xmlns="http://www.w3.org/2000/svg">
<g id="type=taxi">
<circle id="Ellipse 173" cx="18" cy="18" r="18" fill="#FFFCF2"/>
<g id="Group">
<path id="Vector" opacity="0.987" fill-rule="evenodd" clip-rule="evenodd" d="M29.9766 15.9609C29.9766 16.1484 29.9766 16.3359 29.9766 16.5234C29.8574 17.0324 29.7402 17.548 29.625 18.0703C29.5632 18.3317 29.3991 18.4801 29.1328 18.5156C28.8672 18.5312 28.6016 18.5469 28.3359 18.5625C29.1486 19.5323 29.4689 20.6495 29.2969 21.9141C29.1754 22.8603 28.7691 23.6572 28.0781 24.3047C28.0625 25.1016 28.0469 25.8984 28.0312 26.6953C27.975 27.142 27.7328 27.4311 27.3047 27.5625C26.3797 27.6076 25.4579 27.592 24.5391 27.5156C24.2948 27.4103 24.1307 27.2306 24.0469 26.9766C23.9815 26.5109 23.958 26.0422 23.9766 25.5703C19.9764 25.5749 15.9765 25.5593 11.9766 25.5234C11.9953 26.0108 11.9718 26.4953 11.9062 26.9766C11.8224 27.2306 11.6584 27.4103 11.4141 27.5156C10.4952 27.592 9.57336 27.6076 8.64844 27.5625C8.19667 27.4233 7.95448 27.1186 7.92188 26.6484C7.90625 25.8516 7.89062 25.0547 7.875 24.2578C6.88117 23.2608 6.47492 22.0576 6.65625 20.6484C6.75101 19.8577 7.0557 19.1624 7.57031 18.5625C7.30469 18.5469 7.03906 18.5312 6.77344 18.5156C6.53125 18.4609 6.38281 18.3125 6.32812 18.0703C6.21673 17.5471 6.09954 17.0315 5.97656 16.5234C5.97656 16.3359 5.97656 16.1484 5.97656 15.9609C6.07967 15.8035 6.2203 15.6863 6.39844 15.6094C7.24262 15.6015 8.08637 15.5781 8.92969 15.5391C9.29557 14.5416 9.77213 13.6041 10.3594 12.7266C10.8579 12.1057 11.4907 11.676 12.2578 11.4375C12.8649 11.2174 13.4821 11.0378 14.1094 10.8984C14.125 10.2734 14.1406 9.64844 14.1562 9.02344C14.2766 8.69997 14.5032 8.48903 14.8359 8.39063C16.9297 8.35937 19.0234 8.35937 21.1172 8.39063C21.4499 8.48903 21.6765 8.69997 21.7969 9.02344C21.8125 9.64844 21.8281 10.2734 21.8438 10.8984C22.7764 11.1 23.6749 11.4046 24.5391 11.8125C25.208 12.2002 25.7158 12.7392 26.0625 13.4297C26.4334 14.109 26.7537 14.8122 27.0234 15.5391C27.8511 15.5781 28.6793 15.6015 29.5078 15.6094C29.7126 15.6662 29.8689 15.7834 29.9766 15.9609ZM16.9453 12.4453C18.6684 12.3732 20.3715 12.5216 22.0547 12.8906C22.7254 13.0543 23.3505 13.3199 23.9297 13.6875C24.2953 14.1134 24.5843 14.5899 24.7969 15.1172C25.0015 15.5908 25.1969 16.0673 25.3828 16.5469C20.4453 16.5781 15.5078 16.5781 10.5703 16.5469C10.9175 15.5824 11.3628 14.6683 11.9062 13.8047C12.5002 13.3563 13.1642 13.0516 13.8984 12.8906C14.9093 12.6614 15.9248 12.5129 16.9453 12.4453ZM10.9922 19.6641C12.3342 19.7325 12.9826 20.4356 12.9375 21.7734C12.6346 22.8511 11.9236 23.3277 10.8047 23.2031C9.79091 22.903 9.32998 22.2233 9.42188 21.1641C9.61964 20.3177 10.1431 19.8178 10.9922 19.6641ZM24.6328 19.6641C25.595 19.6641 26.2278 20.1173 26.5312 21.0234C26.6893 22.1217 26.244 22.8482 25.1953 23.2031C23.9079 23.3095 23.1735 22.7236 22.9922 21.4453C23.1218 20.4567 23.6687 19.8629 24.6328 19.6641Z" fill="#F8D65D"/>
</g>
</g>
</svg>
