<svg width="36" height="36" viewBox="0 0 36 36" fill="none" xmlns="http://www.w3.org/2000/svg">
<g id="type=tickets">
<circle id="Ellipse 173" cx="18" cy="18" r="18" fill="#FFFAED"/>
<g id="Group 1000002393">
<path id="Intersect" fill-rule="evenodd" clip-rule="evenodd" d="M20 10H13.5C12.1022 10 11.4033 10 10.8519 10.2284C10.1169 10.5328 9.53284 11.1169 9.22836 11.8519C9 12.4033 9 13.1022 9 14.5V15.25C9 15.6642 9.33579 16 9.75 16H10C11.1046 16 12 16.8954 12 18C12 19.1046 11.1046 20 10 20H9.75C9.33579 20 9 20.3358 9 20.75V21.5C9 22.8978 9 23.5967 9.22836 24.1481C9.53284 24.8831 10.1169 25.4672 10.8519 25.7716C11.4033 26 12.1022 26 13.5 26H20V25C20 24.4477 20.4477 24 21 24V22C20.4477 22 20 21.5523 20 21V20C20 19.4477 20.4477 19 21 19V17C20.4477 17 20 16.5523 20 16V15C20 14.4477 20.4477 14 21 14V12C20.4477 12 20 11.5523 20 11V10Z" fill="#E9B738"/>
<path id="Intersect_2" fill-rule="evenodd" clip-rule="evenodd" d="M22 12V14C22.5523 14 23 14.4477 23 15V16C23 16.5523 22.5523 17 22 17V19C22.5523 19 23 19.4477 23 20V21C23 21.5523 22.5523 22 22 22V24C22.5523 24 23 24.4477 23 25V26H23.5C24.8978 26 25.5967 26 26.1481 25.7716C26.8831 25.4672 27.4672 24.8831 27.7716 24.1481C28 23.5967 28 22.8978 28 21.5V20.75C28 20.3358 27.6642 20 27.25 20H27C25.8954 20 25 19.1046 25 18C25 16.8954 25.8954 16 27 16H27.25C27.6642 16 28 15.6642 28 15.25V14.5C28 13.1022 28 12.4033 27.7716 11.8519C27.4672 11.1169 26.8831 10.5328 26.1481 10.2284C25.5967 10 24.8978 10 23.5 10H23V11C23 11.5523 22.5523 12 22 12Z" fill="#E9B738"/>
</g>
</g>
</svg>
