<svg width="36" height="36" viewBox="0 0 36 36" fill="none" xmlns="http://www.w3.org/2000/svg">
<g id="type=books">
<circle id="Ellipse 173" cx="18" cy="18" r="18" fill="#F5FFF8"/>
<path id="book-open" fill-rule="evenodd" clip-rule="evenodd" d="M8 8C7.44772 8 7 8.44771 7 9V22.8333C7 23.3856 7.44772 23.8333 8 23.8333H14.7C15.5752 23.8333 16.4146 24.167 17.0335 24.7608C17.6523 25.3547 18 26.1601 18 27V12.2222C18 11.1024 17.5364 10.0285 16.7113 9.23666C15.8861 8.44484 14.767 8 13.6 8H8ZM29 8C29.5523 8 30 8.44771 30 9V22.8333C30 23.3856 29.5523 23.8333 29 23.8333H22.3C21.4248 23.8333 20.5854 24.167 19.9665 24.7608C19.3477 25.3547 19 26.1601 19 27V12.2222C19 11.1024 19.4636 10.0285 20.2887 9.23666C21.1139 8.44484 22.233 8 23.4 8H29Z" fill="#569990"/>
</g>
</svg>
