<svg width="36" height="36" viewBox="0 0 36 36" fill="none" xmlns="http://www.w3.org/2000/svg">
<g id="type=coffee">
<circle id="Ellipse 173" cx="18" cy="18" r="18" fill="#FFFAEE"/>
<path id="coffee" fill-rule="evenodd" clip-rule="evenodd" d="M14.7733 7C14.7733 6.44772 14.3256 6 13.7733 6C13.221 6 12.7733 6.44772 12.7733 7V10C12.7733 10.5523 13.221 11 13.7733 11C14.3256 11 14.7733 10.5523 14.7733 10V7ZM9 14C9 13.4477 9.4274 13 9.95464 13H25.2287H25.2288H26.1833C27.4766 13 28.7071 13.5386 29.6067 14.4811C30.5049 15.4219 31.0018 16.6885 31.0018 18C31.0018 19.3115 30.5049 20.5781 29.6067 21.5189C28.7071 22.4613 27.4767 23 26.1834 23C26.1834 24.3261 25.6805 25.5979 24.7854 26.5355C23.8903 27.4732 22.6762 28 21.4103 28H13.7732C12.5073 28 11.2932 27.4732 10.398 26.5355C9.50289 25.5979 9 24.3261 9 23V14ZM26.1834 21V15C26.9155 15 27.6276 15.3043 28.1601 15.8621C28.6941 16.4215 29.0018 17.1898 29.0018 18C29.0018 18.8102 28.6941 19.5785 28.1601 20.1379C27.6276 20.6957 26.9155 21 26.1834 21ZM17.5919 6C18.1442 6 18.5919 6.44772 18.5919 7V10C18.5919 10.5523 18.1442 11 17.5919 11C17.0396 11 16.5919 10.5523 16.5919 10V7C16.5919 6.44772 17.0396 6 17.5919 6ZM22.41 7C22.41 6.44772 21.9623 6 21.41 6C20.8578 6 20.41 6.44772 20.41 7V10C20.41 10.5523 20.8578 11 21.41 11C21.9623 11 22.41 10.5523 22.41 10V7Z" fill="#C47A5A"/>
</g>
</svg>
