<svg width="36" height="36" viewBox="0 0 36 36" fill="none" xmlns="http://www.w3.org/2000/svg">
<g id="type=techincs">
<circle id="Ellipse 173" cx="18" cy="18" r="18" fill="#F8F8F8"/>
<path id="Vector" d="M9.92991 12.9036L8.04625 9.78668L9.30202 8.5399L12.4415 10.4101V11.6569L15.6706 14.8629C15.6706 14.9519 15.6706 15.041 15.6706 15.13L14.5045 16.1987L11.1857 12.9036H9.92991ZM23.3846 20.4734C23.1155 20.4734 22.9361 20.4734 22.667 20.4734C22.0392 20.4734 21.501 20.3843 20.9628 20.2953L19.0791 22.4326L23.2949 27.1526C24.2816 28.2212 25.9859 28.3103 26.9725 27.2416C28.0489 26.173 27.9592 24.57 26.8829 23.5903L23.3846 20.4734ZM26.4344 17.0893C27.8695 15.6644 28.318 13.527 27.7798 11.6569C27.6901 11.3006 27.2416 11.2116 27.0622 11.4787L23.9228 14.5957L21.4113 12.1021L24.5507 8.98518C24.8198 8.71801 24.7301 8.36179 24.3713 8.27273C22.4876 7.64934 20.3349 8.09462 18.8997 9.60857C17.2852 11.2116 16.9264 13.7051 17.8233 15.6644L8.85353 23.5903C7.77715 24.57 7.68746 26.262 8.76383 27.2416C9.84021 28.3103 11.4548 28.2212 12.4415 27.1526L20.4246 18.247C22.3979 19.1376 24.8198 18.7813 26.4344 17.0893Z" fill="#717171"/>
</g>
</svg>
