<svg width="36" height="36" viewBox="0 0 36 36" fill="none" xmlns="http://www.w3.org/2000/svg">
<circle cx="18" cy="18" r="18" fill="#FFF2F2"/>
<path opacity="0.996" fill-rule="evenodd" clip-rule="evenodd" d="M10.2656 8C12.0886 8 13.9115 8 15.7344 8C15.9028 8.08386 16.0265 8.21406 16.1055 8.39062C16.125 8.78103 16.1315 9.17166 16.125 9.5625C14.0417 9.5625 11.9583 9.5625 9.875 9.5625C9.86849 9.17166 9.875 8.78103 9.89453 8.39062C9.97352 8.21406 10.0972 8.08386 10.2656 8Z" fill="#F85D5D"/>
<path opacity="0.993" fill-rule="evenodd" clip-rule="evenodd" d="M20.0312 8C21.3854 8 22.7396 8 24.0938 8C24.158 8.03189 24.2035 8.08398 24.2305 8.15625C24.25 8.31196 24.2565 8.46821 24.25 8.625C22.7917 8.625 21.3333 8.625 19.875 8.625C19.8685 8.46821 19.875 8.31196 19.8945 8.15625C19.9215 8.08398 19.967 8.03189 20.0312 8Z" fill="#F85D5D"/>
<path opacity="0.986" fill-rule="evenodd" clip-rule="evenodd" d="M20.0314 9.25C21.3856 9.24349 22.7398 9.25 24.0939 9.26953C24.2118 9.32924 24.2638 9.4269 24.2502 9.5625C24.2638 9.6981 24.2118 9.79576 24.0939 9.85547C22.7398 9.88151 21.3856 9.88151 20.0314 9.85547C19.9136 9.79576 19.8615 9.6981 19.8752 9.5625C19.8667 9.42321 19.9188 9.31904 20.0314 9.25Z" fill="#F85D5D"/>
<path opacity="0.99" fill-rule="evenodd" clip-rule="evenodd" d="M8 13.625C8 13.599 8 13.5729 8 13.5469C8.62576 12.4454 9.23774 11.3322 9.83595 10.2071C11.7241 10.1745 13.6121 10.181 15.5 10.2266C14.8831 11.3498 14.2711 12.4761 13.6641 13.6055C11.7761 13.625 9.88808 13.6315 8 13.625Z" fill="#F85D5D"/>
<path opacity="0.986" fill-rule="evenodd" clip-rule="evenodd" d="M16.086 10.1875C16.1249 10.1842 16.1574 10.1972 16.1836 10.2266C16.7956 11.3464 17.4076 12.4662 18.0196 13.586C18.0456 14.4844 18.0456 15.3828 18.0196 16.2813C16.9258 19.224 15.832 22.1667 14.7383 25.1094C14.6273 25.1877 14.5036 25.2072 14.3672 25.168C14.3216 25.1485 14.2891 25.1159 14.2695 25.0703C14.2435 21.2292 14.2435 17.388 14.2695 13.5469C14.8859 12.4312 15.4914 11.3114 16.086 10.1875Z" fill="#F85D5D"/>
<path opacity="0.989" fill-rule="evenodd" clip-rule="evenodd" d="M19.875 10.5C21.3334 10.4935 22.7917 10.5 24.25 10.5195C24.7621 10.7166 24.964 11.0877 24.8555 11.6328C24.6527 11.979 24.4053 12.2915 24.1133 12.5703C24.0322 12.6764 24.0061 12.7936 24.0352 12.9219C24.7488 13.4764 25.2176 14.1926 25.4414 15.0703C25.4856 15.8827 25.5051 16.6966 25.5 17.5117C25.4935 18.2474 25.487 18.9831 25.4805 19.7187C25.4659 19.7545 25.4463 19.7871 25.4219 19.8164C24.7875 19.8803 24.1494 19.8934 23.5078 19.8555C23.4753 19.8229 23.4427 19.7903 23.4102 19.7578C22.91 18.4787 22.4022 17.2026 21.8867 15.9297C21.6965 15.6751 21.4426 15.5384 21.125 15.5195C20.3567 15.5065 19.5885 15.4935 18.8203 15.4805C18.6785 15.3613 18.6329 15.2116 18.6836 15.0312C18.9023 14.1615 19.371 13.4584 20.0898 12.9219C20.1227 12.7805 20.0966 12.6502 20.0117 12.5312C19.7177 12.2678 19.4703 11.9683 19.2695 11.6328C19.166 11.0842 19.3679 10.7066 19.875 10.5Z" fill="#F85D5D"/>
<path fill-rule="evenodd" clip-rule="evenodd" d="M8 14.25C9.87501 14.25 11.75 14.25 13.625 14.25C13.625 14.875 13.625 15.5 13.625 16.125C11.75 16.125 9.87501 16.125 8 16.125C8 15.5 8 14.875 8 14.25Z" fill="#F85D5D"/>
<path opacity="0.967" fill-rule="evenodd" clip-rule="evenodd" d="M19.6016 28C19.1459 28 18.6902 28 18.2344 28C16.9438 27.8137 15.8305 27.2668 14.8946 26.3594C14.8646 26.1994 14.8776 26.0432 14.9336 25.8906C15.0508 25.5911 15.168 25.2917 15.2852 24.9922C15.3177 24.9596 15.3503 24.9271 15.3829 24.8945C15.9013 24.8453 16.1291 24.5653 16.0665 24.0547C16.0168 23.9401 15.9517 23.836 15.8711 23.7422C15.8451 23.6511 15.8451 23.5599 15.8711 23.4687C16.2119 22.5659 16.5634 21.6675 16.9258 20.7734C16.9982 20.6917 17.0893 20.6527 17.1993 20.6562C17.3585 20.6966 17.5147 20.7487 17.668 20.8125C18.0867 20.6785 18.269 20.392 18.2149 19.9531C18.1735 19.8335 18.1019 19.7359 18.0001 19.6602C17.8517 19.6239 17.715 19.5653 17.5899 19.4844C17.532 19.3593 17.5189 19.2291 17.5508 19.0937C17.9198 18.1168 18.304 17.1468 18.7032 16.1836C18.8594 16.1055 19.0157 16.1055 19.1719 16.1836C19.6642 17.4026 20.146 18.6266 20.6173 19.8555C20.6116 19.8856 20.5986 19.9117 20.5782 19.9336C19.9333 20.2143 19.7575 20.6766 20.0508 21.3203C20.1905 21.5123 20.3728 21.6425 20.5977 21.7109C20.7747 23.6249 20.9505 25.539 21.1251 27.4531C21.1193 27.5242 21.0932 27.5828 21.0469 27.6289C20.571 27.7967 20.0892 27.9204 19.6016 28ZM18.3907 21.4766C18.9412 21.4033 19.3123 21.6247 19.504 22.1406C19.5964 22.6916 19.3815 23.0627 18.8594 23.2539C18.3084 23.3463 17.9373 23.1315 17.7461 22.6094C17.6586 22.0549 17.8735 21.6773 18.3907 21.4766ZM19.1719 23.9766C19.8808 23.9237 20.1999 24.2493 20.129 24.9531C19.891 25.4463 19.5199 25.583 19.0157 25.3633C18.6333 25.0576 18.5617 24.6865 18.8008 24.25C18.9098 24.1342 19.0335 24.043 19.1719 23.9766ZM16.8282 24.9141C17.3787 24.8408 17.7498 25.0622 17.9415 25.5781C18.0339 26.1291 17.819 26.5002 17.2969 26.6914C16.7459 26.7838 16.3748 26.569 16.1836 26.0469C16.0961 25.4924 16.3109 25.1148 16.8282 24.9141Z" fill="#F85D5D"/>
<path opacity="0.957" fill-rule="evenodd" clip-rule="evenodd" d="M19.7969 16.1641C20.2849 16.1188 20.7797 16.1122 21.2813 16.1446C21.317 16.1592 21.3496 16.1787 21.3789 16.2031C21.6116 16.7188 21.8134 17.2462 21.9844 17.7852C21.9795 17.8487 21.96 17.9073 21.9258 17.961C21.7695 18.0651 21.6393 18.1953 21.5352 18.3516C21.4073 18.6731 21.4789 18.94 21.75 19.1524C22.0114 19.1844 22.2718 19.2105 22.5313 19.2305C22.6482 19.4189 22.7394 19.6208 22.8047 19.836C22.2749 19.8876 21.7475 19.8876 21.2227 19.836C20.7578 18.6035 20.2825 17.3795 19.7969 16.1641Z" fill="#F85D5D"/>
<path opacity="0.989" fill-rule="evenodd" clip-rule="evenodd" d="M8 16.75C9.87501 16.75 11.75 16.75 13.625 16.75C13.625 19.25 13.625 21.75 13.625 24.25C11.75 24.25 9.87501 24.25 8 24.25C8 21.75 8 19.25 8 16.75ZM10.7344 18.0391C10.9003 18.0603 11.037 18.1384 11.1445 18.2734C11.8022 19.0361 12.297 19.8955 12.6289 20.8516C12.7223 21.7391 12.3642 22.3706 11.5547 22.7461C10.7879 23.0479 10.0848 22.9437 9.44532 22.4336C8.97227 21.8885 8.84857 21.27 9.07422 20.5781C9.47313 19.6223 10.0265 18.7759 10.7344 18.0391Z" fill="#F85D5D"/>
<path opacity="0.992" fill-rule="evenodd" clip-rule="evenodd" d="M27.9999 20.6563C27.9999 20.7604 27.9999 20.8646 27.9999 20.9688C27.9681 21.033 27.916 21.0785 27.8437 21.1055C27.688 21.125 27.5317 21.1315 27.3749 21.125C27.1649 23.3241 26.9631 25.5247 26.7695 27.7266C26.7488 27.8471 26.6902 27.9382 26.5937 28C25.0312 28 23.4687 28 21.9062 28C21.8097 27.9382 21.7511 27.8471 21.7304 27.7266C21.5367 25.5247 21.3349 23.3241 21.1249 21.125C20.9681 21.1315 20.8119 21.125 20.6562 21.1055C20.6204 21.0909 20.5878 21.0713 20.5585 21.0469C20.5006 20.9218 20.4875 20.7916 20.5194 20.6563C20.539 20.5847 20.5846 20.5391 20.6562 20.5195C23.052 20.4935 25.4479 20.4935 27.8437 20.5195C27.916 20.5465 27.9681 20.592 27.9999 20.6563Z" fill="#F85D5D"/>
<path opacity="0.999" fill-rule="evenodd" clip-rule="evenodd" d="M8 24.875C9.87501 24.875 11.75 24.875 13.625 24.875C13.625 25.9167 13.625 26.9583 13.625 28C11.8802 28 10.1354 28 8.39063 28C8.22136 27.9089 8.09115 27.7786 8 27.6094C8 26.6979 8 25.7864 8 24.875Z" fill="#F85D5D"/>
</svg>
