<svg width="36" height="36" viewBox="0 0 36 36" fill="none" xmlns="http://www.w3.org/2000/svg">
<g id="type=music">
<circle id="Ellipse 173" cx="18" cy="18" r="18" fill="#ECF3FF"/>
<path id="music" d="M15 24V11L27 9V22M15 24C15 25.6569 13.6569 27 12 27C10.3431 27 9 25.6569 9 24C9 22.3431 10.3431 21 12 21C13.6569 21 15 22.3431 15 24ZM27 22C27 23.6569 25.6569 25 24 25C22.3431 25 21 23.6569 21 22C21 20.3431 22.3431 19 24 19C25.6569 19 27 20.3431 27 22Z" stroke="#1754AE" stroke-width="2" stroke-linecap="round" stroke-linejoin="round"/>
</g>
</svg>
