<svg width="36" height="36" viewBox="0 0 36 36" fill="none" xmlns="http://www.w3.org/2000/svg">
<g id="type=sport">
<circle id="Ellipse 173" cx="18" cy="18" r="18" fill="#FFF9E9"/>
<g id="Group">
<g id="Group_2">
<path id="Vector" d="M6 17.9983C6 15.3062 6.90204 12.8271 8.40523 10.8221C9.90786 12.8266 10.8096 15.3062 10.8096 17.9983C10.8096 20.6902 9.90786 23.1697 8.40523 25.174C6.90204 23.1697 6 20.6902 6 17.9983Z" fill="#C68A16"/>
<path id="Vector_2" d="M17.9996 29.9966C15.0714 29.9966 12.3875 28.9407 10.3029 27.1927C12.3246 24.67 13.5422 21.4755 13.5422 17.9989C13.5422 14.5217 12.3245 11.3287 10.3018 8.80531C12.3875 7.05701 15.0708 6 17.9996 6C20.5997 6 23.0027 6.83998 24.9693 8.25053C23.2362 10.6671 22.2047 13.6166 22.2047 16.8099C22.2047 20.6641 23.7042 24.1653 26.1344 26.7945C23.9938 28.7743 21.1405 29.9966 17.9996 29.9966Z" fill="#C68A16"/>
<path id="Vector_3" d="M27.9372 24.7176C26.076 22.6035 24.938 19.8395 24.938 16.8087C24.938 14.3208 25.6988 12.0072 27.001 10.0883C28.8611 12.2029 30.0002 14.9669 30.0002 17.9982C30.0002 20.4867 29.2382 22.7993 27.9372 24.7176Z" fill="#C68A16"/>
</g>
</g>
</g>
</svg>
