<svg width="51" height="16" viewBox="0 0 51 16" fill="none" xmlns="http://www.w3.org/2000/svg">
<rect width="51" height="16" fill="#E8E8E8"/>
<g id="&#208;&#158;&#208;&#191;&#208;&#181;&#209;&#128;&#208;&#176;&#209;&#134;&#208;&#184;&#208;&#184; ( &#208;&#191;&#208;&#181;&#209;&#128;&#208;&#181;&#208;&#188;&#208;&#181;&#209;&#137;&#208;&#181;&#208;&#189;&#208;&#184;&#209;&#143; ) - 1920" clip-path="url(#clip0_2_4)">
<rect width="1920" height="1080" transform="translate(-1285 -564)" fill="white"/>
<rect id="Rectangle 63" x="-985" y="-564" width="1620" height="1080" fill="#F9FFFE"/>
<g id="chart/pie" filter="url(#filter0_dd_2_4)">
<rect x="-154" y="-444" width="757" height="928" rx="20" fill="white"/>
<g id="Frame 159">
<g id="Frame 155">
<g id="Frame 169">
<path id="Vector 407" d="M50.7071 8.70711C51.0976 8.31658 51.0976 7.68342 50.7071 7.29289L44.3431 0.928932C43.9526 0.538408 43.3195 0.538408 42.9289 0.928932C42.5384 1.31946 42.5384 1.95262 42.9289 2.34315L48.5858 8L42.9289 13.6569C42.5384 14.0474 42.5384 14.6805 42.9289 15.0711C43.3195 15.4616 43.9526 15.4616 44.3431 15.0711L50.7071 8.70711ZM0 9H50V7H0V9Z" fill="#263834"/>
</g>
</g>
</g>
</g>
</g>
<defs>
<filter id="filter0_dd_2_4" x="-172" y="-462" width="793" height="964" filterUnits="userSpaceOnUse" color-interpolation-filters="sRGB">
<feFlood flood-opacity="0" result="BackgroundImageFix"/>
<feColorMatrix in="SourceAlpha" type="matrix" values="0 0 0 0 0 0 0 0 0 0 0 0 0 0 0 0 0 0 127 0" result="hardAlpha"/>
<feOffset dx="2" dy="2"/>
<feGaussianBlur stdDeviation="8"/>
<feComposite in2="hardAlpha" operator="out"/>
<feColorMatrix type="matrix" values="0 0 0 0 0.152941 0 0 0 0 0.870588 0 0 0 0 0.74902 0 0 0 0.06 0"/>
<feBlend mode="normal" in2="BackgroundImageFix" result="effect1_dropShadow_2_4"/>
<feColorMatrix in="SourceAlpha" type="matrix" values="0 0 0 0 0 0 0 0 0 0 0 0 0 0 0 0 0 0 127 0" result="hardAlpha"/>
<feOffset dx="-2" dy="-2"/>
<feGaussianBlur stdDeviation="8"/>
<feComposite in2="hardAlpha" operator="out"/>
<feColorMatrix type="matrix" values="0 0 0 0 0.152941 0 0 0 0 0.870588 0 0 0 0 0.74902 0 0 0 0.06 0"/>
<feBlend mode="normal" in2="effect1_dropShadow_2_4" result="effect2_dropShadow_2_4"/>
<feBlend mode="normal" in="SourceGraphic" in2="effect2_dropShadow_2_4" result="shape"/>
</filter>
<clipPath id="clip0_2_4">
<rect width="1920" height="1080" fill="white" transform="translate(-1285 -564)"/>
</clipPath>
</defs>
</svg>
